<svg xmlns="http://www.w3.org/2000/svg" width="336" height="475" fill="none" viewBox="0 0 336 475">
  <path fill="#fff" d="m275.512 48.233-46.587 173.866-173.867-46.587L101.645 1.645l173.867 46.588Z"/>
  <path fill="#fff" d="m236.643 70.429-30.204 112.724-112.724-30.205L123.92 40.225l112.724 30.204Z"/>
  <path stroke="#F4F4F4" stroke-width="2" d="m275.512 48.233-46.587 173.866-173.867-46.587L101.645 1.645l173.867 46.588Z"/>
  <path stroke="#F4F4F4" stroke-width="2" d="m236.643 70.429-30.204 112.724-112.724-30.205L123.92 40.225l112.724 30.204Z"/>
  <path fill="#fff" d="m473.527 101.291-46.588 173.866-173.866-46.587L299.66 54.703l173.867 46.588Z"/>
  <path fill="#fff" d="M434.658 123.487 404.453 236.21 291.73 206.006l30.204-112.723 112.724 30.204Z"/>
  <path stroke="#F4F4F4" stroke-width="2" d="m473.527 101.291-46.588 173.866-173.866-46.587L299.66 54.703l173.867 46.588Z"/>
  <path stroke="#F4F4F4" stroke-width="2" d="M434.658 123.487 404.453 236.21 291.73 206.006l30.204-112.723 112.724 30.204Z"/>
  <path fill="#fff" d="m222.454 246.248-46.587 173.866L2 373.527 48.587 199.66l173.867 46.588Z"/>
  <path fill="#fff" d="m183.585 268.444-30.204 112.723-112.724-30.204L70.861 238.24l112.724 30.204Z"/>
  <path stroke="#F4F4F4" stroke-width="2" d="m222.454 246.248-46.587 173.866L2 373.527 48.587 199.66l173.867 46.588Z"/>
  <path stroke="#F4F4F4" stroke-width="2" d="m183.585 268.444-30.204 112.723-112.724-30.204L70.861 238.24l112.724 30.204Z"/>
  <path fill="#fff" d="m420.469 299.305-46.588 173.867-173.866-46.587 46.587-173.867 173.867 46.587Z"/>
  <path fill="#fff" d="m381.6 321.502-30.204 112.723-112.724-30.204 30.204-112.723L381.6 321.502Z"/>
  <path stroke="#F4F4F4" stroke-width="2" d="m420.469 299.305-46.588 173.867-173.866-46.587 46.587-173.867 173.867 46.587Z"/>
  <path stroke="#F4F4F4" stroke-width="2" d="m381.6 321.502-30.204 112.723-112.724-30.204 30.204-112.723L381.6 321.502Z"/>
</svg>
